<svg id="Layer_1" data-name="Layer 1" xmlns="http://www.w3.org/2000/svg" width="100" height="100" viewBox="0 0 100 100"><title>Artboard 1</title><path d="M57.3,54.6A7.3,7.3,0,1,1,50,47.3,7.3,7.3,0,0,1,57.3,54.6ZM79,52.1v.2c-.5.8-12.5,20.2-28.8,20.2S21.7,53.1,21.2,52.3v-.2a13.5,13.5,0,0,1,.2-9.9c1.9-4.7,6.3-8.4,13-11.1a42.1,42.1,0,0,1,15.7-3.6h.1a42.1,42.1,0,0,1,15.7,3.6c6.7,2.7,11.1,6.5,13,11.1A13.5,13.5,0,0,1,79,52.1Zm-7.6,3.7-4.5-2.4a5.3,5.3,0,1,1,3-5.2L75,50.9l.3-.5a9.5,9.5,0,0,0-.3-6.7c-1.5-3.6-5.1-6.6-10.8-8.9A38.6,38.6,0,0,0,50,31.5a38.2,38.2,0,0,0-14.3,3.3c-5.7,2.3-9.3,5.3-10.8,8.9a9.5,9.5,0,0,0-.3,6.7l.3.5,5.2-2.8a5.3,5.3,0,1,1,2.9,5.2l-4.5,2.4C33.2,61.1,41,68.5,50,68.5S66.8,61.1,71.3,55.8Z"/></svg>