<?xml version="1.0" encoding="utf-8"?>
<!-- Generator: Adobe Illustrator 21.0.0, SVG Export Plug-In . SVG Version: 6.00 Build 0)  -->
<svg version="1.1" id="Layer_1" xmlns="http://www.w3.org/2000/svg" xmlns:xlink="http://www.w3.org/1999/xlink" x="0px" y="0px"
	 viewBox="0 0 100 100" style="enable-background:new 0 0 100 100;" xml:space="preserve">
<style type="text/css">
	.st0{fill:#D8C2AB;}
</style>
<title>Artboard 1</title>
<path class="st0" d="M57.3,54.6c0,4-3.3,7.3-7.3,7.3c-4,0-7.3-3.3-7.3-7.3c0-4,3.3-7.3,7.3-7.3l0,0C54,47.3,57.3,50.6,57.3,54.6z
	 M79,52.1v0.2c-0.5,0.8-12.5,20.2-28.8,20.2s-28.5-19.4-29-20.2v-0.2c-1.2-3.2-1.1-6.7,0.2-9.9c1.9-4.7,6.3-8.4,13-11.1
	c5-2.2,10.3-3.4,15.7-3.6h0.1c5.4,0.2,10.7,1.4,15.7,3.6c6.7,2.7,11.1,6.5,13,11.1C80.2,45.4,80.2,48.9,79,52.1z M71.4,55.8
	l-4.5-2.4c-2.6,1.3-5.8,0.1-7.1-2.5s-0.1-5.8,2.5-7.1c2.6-1.3,5.8-0.1,7.1,2.5c0.3,0.6,0.4,1.2,0.5,1.9l5.1,2.7l0.3-0.5
	c0.7-2.2,0.6-4.6-0.3-6.7c-1.5-3.6-5.1-6.6-10.8-8.9c-4.5-2-9.3-3.1-14.2-3.3c-4.9,0.2-9.8,1.3-14.3,3.3c-5.7,2.3-9.3,5.3-10.8,8.9
	c-0.9,2.1-1,4.5-0.3,6.7l0.3,0.5l5.2-2.8c0.3-2.9,2.8-5.1,5.7-4.8c2.9,0.3,5.1,2.8,4.8,5.7c-0.3,2.9-2.8,5.1-5.7,4.8
	c-0.7-0.1-1.3-0.2-1.9-0.5l-4.5,2.4C33.2,61.1,41,68.5,50,68.5S66.8,61.1,71.4,55.8L71.4,55.8z"/>
</svg>
